<svg width="24" height="24" viewBox="0 0 24 24" fill="none" xmlns="http://www.w3.org/2000/svg">
<g id="Group">
<path id="Vector" d="M16.875 10.1045C15.8296 10.1045 14.9792 10.9571 14.9792 12.0003C14.9792 13.0436 15.8285 13.8962 16.875 13.8962C17.9193 13.8962 18.7708 13.0447 18.7708 12.0003C18.7708 10.956 17.9193 10.1045 16.875 10.1045ZM16.875 12.8128C16.4265 12.8128 16.0625 12.4488 16.0625 12.0003C16.0625 11.5529 16.4276 11.1878 16.875 11.1878C17.3224 11.1878 17.6875 11.5518 17.6875 12.0003C17.6875 12.4477 17.3235 12.8128 16.875 12.8128ZM12 10.1045C10.9535 10.1045 10.1042 10.9571 10.1042 12.0003C10.1042 13.0436 10.9546 13.8962 12 13.8962C13.0454 13.8962 13.8958 13.0447 13.8958 12.0003C13.8958 10.956 13.0465 10.1045 12 10.1045ZM12 12.8128C11.5515 12.8128 11.1875 12.4488 11.1875 12.0003C11.1875 11.5529 11.5526 11.1878 12 11.1878C12.4474 11.1878 12.8125 11.5518 12.8125 12.0003C12.8125 12.4477 12.4485 12.8128 12 12.8128ZM7.12499 10.1045C6.07957 10.1045 5.22916 10.9571 5.22916 12.0003C5.22916 13.0436 6.07957 13.8962 7.12499 13.8962C8.16932 13.8962 9.02082 13.0447 9.02082 12.0003C9.02082 10.956 8.16824 10.1045 7.12499 10.1045ZM7.12499 12.8128C6.67649 12.8128 6.31249 12.4488 6.31249 12.0003C6.31249 11.5529 6.67757 11.1878 7.12499 11.1878C7.57241 11.1878 7.93749 11.5518 7.93749 12.0003C7.93749 12.4477 7.57349 12.8128 7.12499 12.8128Z" fill="#023E8A"/>
<path id="Vector_2" d="M12 23.6462C5.57799 23.6462 0.354156 18.4223 0.354156 12.0003C0.354156 5.57833 5.57799 0.354492 12 0.354492C18.422 0.354492 23.6458 5.57833 23.6458 12.0003C23.6458 18.4223 18.422 23.6462 12 23.6462ZM12 1.97949C6.47499 1.97949 1.97916 6.47533 1.97916 12.0003C1.97916 17.5253 6.47499 22.0212 12 22.0212C17.525 22.0212 22.0208 17.5253 22.0208 12.0003C22.0208 6.47533 17.525 1.97949 12 1.97949Z" fill="#023E8A"/>
</g>
</svg>
