<svg width="26" height="23" viewBox="0 0 26 23" fill="none" xmlns="http://www.w3.org/2000/svg">
<g id="Group">
<path id="Vector" d="M24.4617 6.96222L13.5146 1.0548C13.1928 0.881471 12.8061 0.881471 12.4854 1.0548L1.54375 6.96222C1.01725 7.24822 0.821171 7.90472 1.105 8.43122C1.3 8.79414 1.67375 8.99997 2.05834 8.99997C2.23167 8.99997 2.40934 8.95881 2.57292 8.86997L3.36809 8.44097L5.09059 20.6285C5.32459 21.9436 6.50975 22.8623 7.97225 22.8623H18.0278C19.4903 22.8623 20.6754 21.9436 20.9116 20.6003L22.6319 8.43989L23.4303 8.87106C23.9558 9.15597 24.6133 8.95989 24.8972 8.43339C25.1821 7.90689 24.9838 7.24931 24.4595 6.96547L24.4617 6.96222ZM13 15.721C11.0554 15.721 9.47917 14.1447 9.47917 12.2001C9.47917 10.2556 11.0554 8.67931 13 8.67931C14.9446 8.67931 16.5208 10.2556 16.5208 12.2001C16.5208 14.1447 14.9446 15.721 13 15.721Z" fill="#023E8A"/>
</g>
</svg>
