<svg width="22" height="22" viewBox="0 0 22 22" fill="none" xmlns="http://www.w3.org/2000/svg">
<g id="Group">
<path id="Vector" d="M20.75 5.94838H16.4925L16.8955 1.32038C16.9345 0.874048 16.603 0.480798 16.1567 0.440715C15.7049 0.408215 15.316 0.733215 15.277 1.18063L14.8621 5.9473H8.01542L8.41625 1.32147C8.45633 0.874048 8.12375 0.480798 7.67958 0.440715C7.22458 0.408215 6.83783 0.733215 6.79883 1.18063L6.385 5.9473H2.09717C1.64867 5.9473 1.28467 6.31238 1.28467 6.7598C1.28467 7.20722 1.64867 7.5723 2.09717 7.5723H6.24417L5.64833 14.4265H1.25C0.8015 14.4265 0.4375 14.7905 0.4375 15.239C0.4375 15.6875 0.8015 16.0515 1.25 16.0515H5.5075L5.1045 20.6795C5.0655 21.1259 5.397 21.5191 5.84333 21.5592L5.91483 21.5625C6.33192 21.5625 6.68617 21.2429 6.723 20.8193L7.13792 16.0526H13.9846L13.5838 20.6785C13.5448 21.1259 13.8763 21.5191 14.3226 21.5592L14.3941 21.5625C14.8112 21.5625 15.1654 21.2429 15.2023 20.8193L15.6161 16.0526H19.9028C20.3503 16.0526 20.7153 15.6875 20.7153 15.2401C20.7153 14.7927 20.3503 14.4276 19.9028 14.4276H15.7558L16.3517 7.57338H20.75C21.1985 7.57338 21.5625 7.20938 21.5625 6.76088C21.5625 6.31238 21.1985 5.94838 20.75 5.94838ZM14.1254 14.4265H7.27875L7.87458 7.57338H14.7213L14.1254 14.4265Z" fill="#023E8A"/>
</g>
</svg>
