<svg width="18" height="18" viewBox="0 0 18 18" fill="none" xmlns="http://www.w3.org/2000/svg">
<g id="Group">
<path id="Vector" d="M16.9417 16.0587L13.8917 13.0087C14.9959 11.7003 15.6667 10.012 15.6667 8.16699C15.6667 4.02533 12.3084 0.666992 8.16669 0.666992C4.02502 0.666992 0.666687 4.02533 0.666687 8.16699C0.666687 12.3087 4.02502 15.667 8.16669 15.667C10.0125 15.667 11.7 14.997 13.0067 13.892L16.0567 16.942C16.1792 17.0637 16.34 17.1253 16.4984 17.1253C16.6567 17.1253 16.8192 17.0645 16.94 16.942C17.1859 16.6978 17.1859 16.3028 16.9417 16.0587ZM1.91669 8.16699C1.91669 4.72116 4.72085 1.91699 8.16669 1.91699C11.6125 1.91699 14.4167 4.72116 14.4167 8.16699C14.4167 11.6128 11.6125 14.417 8.16669 14.417C4.72085 14.417 1.91669 11.6128 1.91669 8.16699Z" fill="#828282"/>
</g>
</svg>
